inDegrees=no
num_controls=7
num_derivatives=13
num_iterations=113
num_multipliers=7
num_parameters=0
num_slacks=7
num_states=26
objective=4.168073
objective_accelerations=0.292773
objective_balance=0.069150
objective_effort=0.299512
objective_height=3.424538
objective_ligament=0.082100
solver_duration=1241.534222
status=Solve_Succeeded
success=true
DataType=double
version=3
OpenSimVersion=4.4-2022-07-23-0e9fedc
endheader
time	/jointset/ground_pelvis/pelvis_tilt/value	/jointset/ground_pelvis/pelvis_tx/value	/jointset/ground_pelvis/pelvis_ty/value	/jointset/hip_l/hip_flexion_l/value	/jointset/hip_l/hip_adduction_l/value	/jointset/hip_l/hip_rotation_l/value	/jointset/back/lumbar_extension/value	/jointset/patellofemoral_l/patellar_flexion_l/value	/jointset/knee_l/knee_flexion_l/value	/jointset/knee_l/knee_adduction_l/value	/jointset/knee_l/knee_rotation_l/value	/jointset/ankle_l/ankle_angle_l/value	/jointset/subtalar_l/subtalar_angle_l/value	/jointset/ground_pelvis/pelvis_tilt/speed	/jointset/ground_pelvis/pelvis_tx/speed	/jointset/ground_pelvis/pelvis_ty/speed	/jointset/hip_l/hip_flexion_l/speed	/jointset/hip_l/hip_adduction_l/speed	/jointset/hip_l/hip_rotation_l/speed	/jointset/back/lumbar_extension/speed	/jointset/patellofemoral_l/patellar_flexion_l/speed	/jointset/knee_l/knee_flexion_l/speed	/jointset/knee_l/knee_adduction_l/speed	/jointset/knee_l/knee_rotation_l/speed	/jointset/ankle_l/ankle_angle_l/speed	/jointset/subtalar_l/subtalar_angle_l/speed	/forceset/tau_hip_flexion_l	/forceset/tau_hip_adduction_l	/forceset/tau_hip_rotation_l	/forceset/tau_knee_flexion_l	/forceset/tau_ankle_angle_l	/forceset/tau_subtalar_angle_l	/forceset/tau_lumbar_extension	lambda_cid13_p0	lambda_cid13_p1	lambda_cid13_p2	lambda_cid13_p3	lambda_cid13_p4	lambda_cid13_p5	lambda_cid14_p0	/jointset/ground_pelvis/pelvis_tilt/accel	/jointset/ground_pelvis/pelvis_tx/accel	/jointset/ground_pelvis/pelvis_ty/accel	/jointset/hip_l/hip_flexion_l/accel	/jointset/hip_l/hip_adduction_l/accel	/jointset/hip_l/hip_rotation_l/accel	/jointset/back/lumbar_extension/accel	/jointset/patellofemoral_l/patellar_flexion_l/accel	/jointset/knee_l/knee_flexion_l/accel	/jointset/knee_l/knee_adduction_l/accel	/jointset/knee_l/knee_rotation_l/accel	/jointset/ankle_l/ankle_angle_l/accel	/jointset/subtalar_l/subtalar_angle_l/accel	gamma_cid13_p0	gamma_cid13_p1	gamma_cid13_p2	gamma_cid13_p3	gamma_cid13_p4	gamma_cid13_p5	gamma_cid14_p0
0	-0.1601681960986037	0.05857491714411892	0.8979987704179063	0.3774920279260975	-0.2591367018128853	-0.2729753023357374	-0.0126506700172305	0.03223623128440884	0.03223623128433527	-0.1745328866201068	0.1745320078756485	-0.04231376238535053	-0.00926107212726612	0	0	0	0	0	0	0	0	0	0	0	0	0	0.139148674657581	-0.0955488743806264	-0.05568361745049498	-0.3363781027118185	0.3923024164618743	-0.04592713100210667	-0.07554869119737816	83.9627837118651	-0.3678923034824451	6.067366646328381	-44.3217526608321	-601.8526393938968	-79.57272252013301	-39.07546077443848	-1.94941335367336	-0.6824785008167463	-0.6646412918524643	7.574889990351155	-1.045497069341632	2.850175293304217	-4.572293656330554	8.092552101451234	8.092552101453094	0.2165862491694851	0.02088815520196599	2.68845078538476	-0.4460871605273272	-3.398214537520313e-08	6.844525779814167e-08	4.90844958206246e-08	2.121199195831778e-08	-1.662164291855134e-08	-2.898401993473358e-08	-5.096394758154496e-09
0.01	-0.1602609058921502	0.05854020309785552	0.8979662835367527	0.3778614471056556	-0.2591885900026454	-0.2728329255929522	-0.01288018472643978	0.03263205347747486	0.03263205347746758	-0.1745234203300095	0.1745301926571974	-0.04218383767628978	-0.00928403401539394	-0.01837668245864412	-0.007025268953795063	-0.006482960467519537	0.07363818482667701	-0.01033965440349424	0.02835548850007422	-0.0456817752360113	0.07886190708650417	0.0788619070865204	0.0018685049812634	-0.0003556564210735416	0.02574492196039077	-0.004611176198608882	0.1302854552986905	-0.105277003489381	-0.05323984937134006	-0.3211262737849416	0.3656921452896873	-0.02708482193290048	-0.06935216994077875	76.08365017844817	-6.902341751078894	6.801659139862942	-38.49226618899855	-602.2113089540435	-91.70787205008966	-39.08662178333154	-1.757008215850011	-0.7249158047083963	-0.637964384351155	7.221430538233056	-1.022521305824722	2.810252393722068	-4.532944466969662	7.737631303252971	7.73763130325439	0.1682887652414283	-0.06268719596586769	2.481506782411721	-0.4714685287794045	-4.845925007279565e-08	9.491846793427077e-08	7.24878133673349e-08	3.039114209432279e-08	-8.240549729531205e-08	-1.078781936403366e-08	-9.127291103474114e-09
0.02	-0.1605324250150011	0.05843276341964378	0.8978693988589028	0.3789598776952995	-0.2593427390724335	-0.2724105906120363	-0.01355988218995032	0.03380741899963255	0.03380741899965752	-0.1744960077603186	0.1745250419430861	-0.04180366497141044	-0.009353674801356867	-0.03576186587312666	-0.01454512638966408	-0.01287955933922463	0.1458022820296164	-0.02045217600583879	0.0559916476146338	-0.09003655086137062	0.1559086658131811	0.1559086658132217	0.003589255667879233	-0.0006670990502369618	0.05004959916261777	-0.009335779567338732	0.1214222359389756	-0.1150051325984123	-0.05079608129252664	-0.3058744448582211	0.3390818741174048	-0.008242512863981886	-0.06315564868479882	68.26967412648723	-13.44955362457452	7.539536932278596	-32.85648241045262	-601.6311429640001	-103.7446095295759	-39.11983222846379	-1.751113544841525	-0.7813961972312827	-0.647368972689667	7.280072465603521	-1.000070509112745	2.706309416199414	-4.30689373420042	7.729522429486178	7.72952242948968	0.1870353902377549	0.02973091358602459	2.400401833752067	-0.4687725945525162	-6.293635477038818e-08	1.213916780703999e-07	9.589113091404519e-08	3.95702922303278e-08	-1.481893516720728e-07	7.408381206666267e-09	-1.315818744879373e-08
0.03	-0.1609736908329335	0.05824919054198826	0.8977089811336035	0.3807715231234161	-0.25959654239505	-0.2717157055604522	-0.01467542399381457	0.03574395668809582	0.03574395668801311	-0.1744518386744889	0.1745171835704227	-0.04118573443741958	-0.009470381913413909	-0.05239462450659507	-0.02209712003313905	-0.01918631627023908	0.2161450546004321	-0.0302414181507013	0.08285058853324927	-0.1327604537871605	0.2310558105433341	0.2310558105433361	0.005238698642438108	-0.000890716638084924	0.07348095539314077	-0.01395540454809461	0.1172249754213402	-0.108081364261622	-0.05018416827014213	-0.3019262593648273	0.3351845592527771	-0.0122486190280784	-0.05964561259672554	66.84386550556283	-11.61514141431029	7.424228264829082	-32.28956739744916	-602.0972677843996	-99.30500762274974	-39.17419027496382	-1.604861885994751	-0.7312436304354805	-0.6197085395362086	6.854108309456243	-0.9583131176498803	2.65545920359898	-4.208435153399684	7.355853944648856	7.355853944640607	0.1530487154941703	-0.04633842426693792	2.306165338025509	-0.451051027528438	-7.859799193854346e-08	1.200533754821571e-07	1.181165072579138e-07	5.468895413025369e-08	-2.257898119196461e-07	5.363402722594774e-09	-1.775339866780106e-08
0.04	-0.1615783852098218	0.05799226919139112	0.8974860199417555	0.3832751420085574	-0.2599462305492172	-0.2707562765448971	-0.01620886414325829	0.03842167451372734	0.03842167451374177	-0.1743913451660573	0.1745075029559535	-0.0403351577770566	-0.009631783990815757	-0.06844757767609636	-0.0292148209779845	-0.02538825264896121	0.2841969734366308	-0.03962914231467879	0.1089004404080894	-0.1736162199782218	0.3041446932682909	0.3041446932682405	0.006854140194118332	-0.001031547397777335	0.09657882443660699	-0.01827477263652808	0.1130277149034023	-0.1011575959248592	-0.04957225524680894	-0.2979780738715334	0.3312872443881908	-0.01625472519220594	-0.05613557650898944	65.47983468275858	-9.78912386233692	7.307494219608619	-31.90608026187141	-601.6882116886354	-94.76609980175195	-39.24849989963414	-1.635152452048423	-0.6945376575053522	-0.6264048622312327	6.821901718680147	-0.9197669129360148	2.544491607443299	-3.933266387254931	7.317870028447223	7.317870028447937	0.1802351056613901	0.04628827921826131	2.333704396340714	-0.4087212160883089	-9.428405245660727e-08	1.181416396418654e-07	1.403175961543011e-07	6.993008019026043e-08	-3.036339135253805e-07	2.901080340486755e-09	-2.236024524502877e-08
0.05	-0.1623406645500225	0.05766576756503042	0.8972013791310852	0.3864487263812276	-0.260387855879709	-0.2695404226824495	-0.01814175134578094	0.04182035486151968	0.04182035486152019	-0.1743151307693078	0.1744969626113594	-0.03925591653538381	-0.009835123452512867	-0.08388700192600418	-0.0360693357115911	-0.03153631909802038	0.3501888730994009	-0.04862977121634577	0.1341480373718039	-0.2126925992130625	0.3752522338654007	0.375252233865391	0.008364537117460775	-0.00107522439958901	0.1191399096664209	-0.02236370048905877	0.1066649973594173	-0.09799974921239699	-0.04826940120515016	-0.2901343589155714	0.3193693941755812	-0.01387193024456036	-0.05129223317101254	61.75349876997558	-10.22399786255377	7.436769344078742	-29.48182896636239	-601.4058355909335	-94.5225463661384	-39.34126467090923	-1.480148918545952	-0.678468984867664	-0.6085303340836455	6.438168792226091	-0.8803091147980731	2.496530404970938	-3.854530494540949	6.956329221215017	6.956329221220431	0.1328438587683253	-0.02951870255832301	2.197876572636164	-0.4045990595924785	-1.055517200482316e-07	1.168869210543819e-07	1.617457664731637e-07	7.93038567899922e-08	-3.575299455097237e-07	1.707248510771091e-09	-2.658119615058987e-08
